M48
INCH,TZ
T1C0.014
T2C0.020
T3C0.030
T4C0.031
T5C0.040
T6C0.047
T7C0.126
%
G90
G05
T1
X8268Y-15846
X9252Y-18898
X9843Y-16240
X9941Y-20079
X11713Y-17028
X11909Y-15846
X12205Y-17028
X12795Y-11811
X13681Y-13583
X13937Y-13307
X13976Y-13780
X14075Y-17421
X14259Y-13077
X14272Y-17717
X14469Y-13780
X14469Y-18012
X14724Y-18307
X14961Y-13780
X15256Y-11220
X15256Y-11713
X15453Y-13780
X16043Y-12598
X16339Y-18110
X16339Y-19685
X17323Y-13583
X17402Y-14764
X17717Y-14567
X17717Y-16575
X18110Y-19291
T2
X10630Y-17520
X14606Y-19843
X17279Y-15605
X17323Y-9547
X19104Y-13780
X20768Y-13780
T3
X9843Y-11008
X9843Y-13008
T4
X13386Y-10433
X14386Y-10433
X15386Y-10433
T5
X6193Y-10311
X6193Y-11311
X6193Y-12311
X6193Y-13311
X6193Y-15520
X6193Y-16520
X6193Y-17520
X6193Y-18520
X6193Y-19520
X7193Y-10311
X7193Y-11311
X7193Y-12311
X7193Y-13311
X7193Y-15520
X7193Y-16520
X7193Y-17520
X7193Y-18520
X7193Y-19520
X21941Y-8524
X21941Y-9524
X21941Y-10524
X21941Y-11524
X21941Y-12524
X21941Y-13524
X21941Y-15520
X21941Y-16520
X21941Y-17520
X21941Y-18520
X21941Y-19520
X22941Y-8524
X22941Y-9524
X22941Y-10524
X22941Y-11524
X22941Y-12524
X22941Y-13524
X22941Y-15520
X22941Y-16520
X22941Y-17520
X22941Y-18520
X22941Y-19520
T6
X12710Y-6693
X13043Y-5693
X13043Y-7693
X13612Y-6693
X13945Y-5693
X13945Y-7693
X14514Y-6693
X14846Y-5693
X14846Y-7693
X15415Y-6693
X15748Y-5693
X15748Y-7693
X16317Y-6693
X16650Y-5693
X16650Y-7693
T7
X9842Y-6693
X19686Y-6693
T0
M30
